<svg width="19" height="20" viewBox="0 0 19 20" fill="none" xmlns="http://www.w3.org/2000/svg">
<path d="M17.6429 0.375H1.3529C0.606473 0.375 0 0.998047 0 1.76289V18.2371C0 19.002 0.606473 19.625 1.3529 19.625H17.6429C18.3893 19.625 19 19.002 19 18.2371V1.76289C19 0.998047 18.3893 0.375 17.6429 0.375ZM5.74241 16.875H2.92634V7.68828H5.74665V16.875H5.74241ZM4.33437 6.43359C3.43103 6.43359 2.70156 5.69023 2.70156 4.7793C2.70156 3.86836 3.43103 3.125 4.33437 3.125C5.23348 3.125 5.96719 3.86836 5.96719 4.7793C5.96719 5.69453 5.23772 6.43359 4.33437 6.43359ZM16.2984 16.875H13.4824V12.4062C13.4824 11.3406 13.4612 9.96992 12.0192 9.96992C10.5518 9.96992 10.327 11.1301 10.327 12.3289V16.875H7.51094V7.68828H10.2125V8.94297H10.2507C10.6281 8.22109 11.5484 7.46055 12.9183 7.46055C15.7683 7.46055 16.2984 9.36406 16.2984 11.8391V16.875Z" fill="#212427"/>
</svg>
